<svg id="Camada_1" data-name="Camada 1" xmlns="http://www.w3.org/2000/svg" viewBox="0 0 356.4 434.16"><defs><style>.cls-1{fill:none;stroke:#fff;stroke-miterlimit:10;stroke-width:2px}</style></defs><path class="cls-1" d="M283.24 171.43h-67.42l16.44-58.39-16.04-2.42-7.91 5.53-3.32-14.68-12.99 6.68 4.63-16.45-8.1-1.03 7.53-21.48h-37.48l-28.79 157.9h41.95l-42.68 171.84 154.18-227.5z"/><path stroke="#f2f2f2" stroke-miterlimit="10" stroke-width="2" fill="none" d="M238.47 50.82l21.99-13.06-16.34-11.89-5.65 24.95z"/><path class="cls-1" d="M247.93 108.73l10.07 7.32 2.17-9.59-12.24 2.27zM201.15 50.21l2.8-16.79-13.06 3.2 10.26 13.59zM239.1 84l9.85-.79-3.64-6.9L239.1 84z"/><path fill="#fff" stroke-miterlimit="10" stroke-width="2" stroke="#fff" d="M258.96 183.41h-67.42l16.45-58.39-16.05-2.41-7.91 5.52-3.32-14.67-12.98 6.68 4.62-16.45-8.09-1.03 7.52-21.49H134.3l-28.78 157.91h41.95l-42.68 171.83 154.17-227.5z"/></svg>